<mxfile host="app.diagrams.net" modified="2024-02-16T09:50:17.672Z" agent="Mozilla/5.0 (X11; Linux x86_64) AppleWebKit/537.36 (KHTML, like Gecko) Chrome/121.0.0.0 Safari/537.36" etag="k-5nSrJhXjqDZxIu_mTZ" version="23.1.5" type="google">
  <diagram name="Страница — 1" id="3t4iabGEyHaNomIPsIld">
    <mxGraphModel grid="1" page="1" gridSize="10" guides="1" tooltips="1" connect="1" arrows="1" fold="1" pageScale="1" pageWidth="827" pageHeight="1169" math="0" shadow="0">
      <root>
        <mxCell id="0" />
        <mxCell id="1" parent="0" />
        <mxCell id="K-NB3Js_JHgpu-BTzsBf-2" value="&lt;span style=&quot;font-size: 16px;&quot;&gt;Виды систем видеоконференцсвязи&lt;/span&gt;" style="rounded=1;whiteSpace=wrap;html=1;strokeWidth=2;fillColor=#f5f5f5;strokeColor=#666666;fontColor=#333333;" vertex="1" parent="1">
          <mxGeometry x="210" y="30" width="400" height="60" as="geometry" />
        </mxCell>
        <mxCell id="K-NB3Js_JHgpu-BTzsBf-3" value="&lt;font style=&quot;font-size: 16px;&quot;&gt;&lt;b&gt;Modern VCS&lt;/b&gt;&lt;br&gt;&lt;br&gt;Участник получает множество потоков от каждого участника конференции через сервер, но посылает на сервер, только один свой поток&amp;nbsp;&lt;/font&gt;" style="rounded=1;whiteSpace=wrap;html=1;fillColor=#f8cecc;strokeColor=#b85450;strokeWidth=2;" vertex="1" parent="1">
          <mxGeometry x="60" y="160" width="180" height="240" as="geometry" />
        </mxCell>
        <mxCell id="K-NB3Js_JHgpu-BTzsBf-4" value="" style="curved=1;endArrow=classic;html=1;rounded=0;strokeWidth=2;fillColor=#f8cecc;strokeColor=#b85450;" edge="1" parent="1" source="K-NB3Js_JHgpu-BTzsBf-2" target="K-NB3Js_JHgpu-BTzsBf-3">
          <mxGeometry width="50" height="50" relative="1" as="geometry">
            <mxPoint x="390" y="380" as="sourcePoint" />
            <mxPoint x="440" y="330" as="targetPoint" />
            <Array as="points">
              <mxPoint x="140" y="80" />
            </Array>
          </mxGeometry>
        </mxCell>
        <mxCell id="K-NB3Js_JHgpu-BTzsBf-5" value="&lt;font style=&quot;font-size: 16px;&quot;&gt;&lt;b&gt;Classic VCS&lt;/b&gt;&lt;br&gt;&lt;br&gt;Каждый участник получает один собранный поток от сервера и посылает на сервер только один свой поток&lt;/font&gt;" style="rounded=1;whiteSpace=wrap;html=1;fillColor=#d5e8d4;strokeColor=#82b366;strokeWidth=2;" vertex="1" parent="1">
          <mxGeometry x="320" y="160" width="180" height="240" as="geometry" />
        </mxCell>
        <mxCell id="K-NB3Js_JHgpu-BTzsBf-6" value="&lt;span style=&quot;font-size: 16px;&quot;&gt;&lt;b&gt;&amp;nbsp;MESH системы&lt;/b&gt;&lt;br&gt;&lt;br&gt;Участник получает потоки ото всех и посылает их так же всем.&lt;br&gt;Может работать как локальный ретранслятор для соседних устройств&lt;br&gt;&lt;/span&gt;" style="rounded=1;whiteSpace=wrap;html=1;fillColor=#dae8fc;strokeColor=#6c8ebf;strokeWidth=2;" vertex="1" parent="1">
          <mxGeometry x="580" y="160" width="180" height="240" as="geometry" />
        </mxCell>
        <mxCell id="K-NB3Js_JHgpu-BTzsBf-7" value="" style="curved=1;endArrow=classic;html=1;rounded=0;strokeWidth=2;fillColor=#dae8fc;strokeColor=#6c8ebf;" edge="1" parent="1" source="K-NB3Js_JHgpu-BTzsBf-2" target="K-NB3Js_JHgpu-BTzsBf-6">
          <mxGeometry width="50" height="50" relative="1" as="geometry">
            <mxPoint x="730" y="50" as="sourcePoint" />
            <mxPoint x="684" y="132" as="targetPoint" />
            <Array as="points">
              <mxPoint x="660" y="80" />
            </Array>
          </mxGeometry>
        </mxCell>
        <mxCell id="K-NB3Js_JHgpu-BTzsBf-8" value="" style="curved=1;endArrow=classic;html=1;rounded=0;strokeWidth=2;fillColor=#d5e8d4;strokeColor=#82b366;" edge="1" parent="1" source="K-NB3Js_JHgpu-BTzsBf-2" target="K-NB3Js_JHgpu-BTzsBf-5">
          <mxGeometry width="50" height="50" relative="1" as="geometry">
            <mxPoint x="490" y="120" as="sourcePoint" />
            <mxPoint x="544" y="202" as="targetPoint" />
          </mxGeometry>
        </mxCell>
      </root>
    </mxGraphModel>
  </diagram>
</mxfile>
